<?xml version="1.0" encoding="UTF-8"?>
<svg width="1200pt" height="1200pt" version="1.1" viewBox="0 0 1200 1200" xmlns="http://www.w3.org/2000/svg">
 <path d="m408.72 436.56h444c19.922 0 36-16.078 36-36s-16.078-36-36-36h-444c-19.922 0-36 16.078-36 36 0 19.801 16.082 36 36 36z" fill="#5170ff"/>
 <path d="m408.72 628.56h444c19.922 0 36-16.078 36-36s-16.078-36-36-36h-444c-19.922 0-36 16.078-36 36s16.082 36 36 36z" fill="#5170ff"/>
 <path d="m408.72 820.56h444c19.922 0 36-16.078 36-36s-16.078-36-36-36h-444c-19.922 0-36 16.078-36 36s16.082 36 36 36z" fill="#5170ff"/>
</svg>
