<?xml version="1.0" encoding="UTF-8"?>
<svg width="1200pt" height="1200pt" version="1.1" viewBox="0 0 1200 1200" xmlns="http://www.w3.org/2000/svg">
 <path d="m876.52 376.5-223.5 223.5 223.5 223.5c14.672 14.672 14.672 38.391 0 53.016-7.3125 7.3125-16.922 10.969-26.531 10.969s-19.172-3.6562-26.531-10.969l-223.5-223.5-223.5 223.5c-7.3125 7.3125-16.922 10.969-26.531 10.969s-19.172-3.6562-26.531-10.969c-14.672-14.672-14.672-38.391 0-53.016l223.5-223.5-223.5-223.5c-14.672-14.672-14.672-38.391 0-53.016 14.672-14.672 38.391-14.672 53.016 0l223.5 223.5 223.5-223.5c14.672-14.672 38.391-14.672 53.016 0 14.672 14.672 14.672 38.391 0 53.016z" fill="#ffbc59"/>
</svg>
