<?xml version="1.0" encoding="UTF-8"?>
<svg width="1200pt" height="1200pt" version="1.1" viewBox="0 0 1200 1200" xmlns="http://www.w3.org/2000/svg">
 <path d="m1200 600c0 214.36-114.36 412.44-300 519.62-185.64 107.18-414.36 107.18-600 0-185.64-107.18-300-305.26-300-519.62s114.36-412.44 300-519.62c185.64-107.18 414.36-107.18 600 0 185.64 107.18 300 305.26 300 519.62z" fill="#ffbc59"/>
 <path d="m263.53 770.42c-10.625-11.719-17.328-28.637-17.328-48.059v-254.38c0-28.043 13.934-58.566 35.57-77.227 22.969-19.809 51.543-24.266 72.621-14.82 11.039 4.9609 113.21 50.773 179.75 80.59v-50.508c0-25.504 16.738-49.18 36.102-53.164l61.668-12.637c6.7617-1.3867 13.168-0.35547 18.746 2.5391l0.14844 0.089843c0.32422 0.17578 0.64844 0.35547 0.97266 0.53125l59.129 32.59v-7.5586c0-24.766 16.09-47.676 34.656-51.484l58.805-12.043c4.8398-0.97266 9.4766-0.67969 13.727 0.70703h0.03125c1.5352 0.47266 3.0117 1.1211 4.4297 1.8594l108.02 46.641c0.85547 0.32422 1.7109 0.67969 2.5391 1.0938 0.17578 0.089844 0.35547 0.14844 0.53125 0.26562 11.809 6.0508 20.164 20.367 20.164 39.23v304.5c0 26.273-16.887 51.688-36.488 57.121l-64.766 17.918c-11.336 3.1289-21.992-0.20703-29.551-8.2656l-57.625-49.801v33.652c0 27.07-17.535 53.371-38.023 59.039l-67.926 18.773c-12.074 3.3359-23.086-0.29688-30.938-8.8281l-0.03125-0.03125-50.035-53.758c-37.992 35.156-76.129 70.551-113.82 105.71-24.766 23.086-55.852 30.051-79.199 21.227-7.5859-2.8633-14.438-7.4102-20.281-13.312-0.11719-0.11719-0.26563-0.23438-0.38281-0.38281l-99.809-106.33c-0.44141-0.47266-0.88672-0.94531-1.3281-1.418zm550.57-453.22c-2.2734-0.67969-4.7227-0.79688-7.293-0.26562l-58.773 12.043c-5.2539 1.0625-10.094 4.4883-14.082 9.1523-6.5234 7.6758-10.805 18.805-10.805 30.289v14.348l20.191 11.102c1.4453 0.67969 2.832 1.4453 4.1914 2.3633h0.03125c10.449 6.9375 17.801 20.871 17.801 38.555v265.18l46.938 40.531c-0.23438-2.0977-0.35547-4.25-0.35547-6.4648v-311.76c0-26.98 17.477-51.957 37.699-56.09l52.84-10.832zm20.988 443.01c3.9844 2.7148 8.8281 3.6602 14.168 2.1836l64.766-17.918c5.8438-1.625 11.219-5.7578 15.645-11.305 7.1445-8.8867 11.836-21.371 11.836-33.977v-304.5c0-13.168-5.1641-23.852-13.047-28.133-0.089844-0.058594-0.20703-0.089844-0.29688-0.11719l-2.5664-1.1211c-2.6875-0.85547-5.6094-1.0352-8.707-0.41406l-64.766 13.285c-5.9023 1.2109-11.363 5.0195-15.852 10.301-7.293 8.5625-12.043 20.957-12.043 33.77v311.76c0 9.9766 2.9531 18.363 7.8242 23.527zm-297.77-288.8c-65.977-29.578-176.45-79.117-187.95-84.246-17.328-7.793-40.68-3.3945-59.57 12.871-19.039 16.441-31.32 43.277-31.32 67.957v254.38c0 16.031 5.3125 30.051 14.051 39.734l0.089844 0.089844 1.2695 1.3594 72.148 76.871c-0.94531-5.1953-1.4453-10.656-1.4453-16.324v-280.23c0-30.699 15.262-64.148 38.965-84.602 25.094-21.637 56.293-26.539 79.352-16.207 31.762 14.258 64.176 28.664 96.586 43.012zm-163.45 398.67c4.5742 4.6055 9.918 8.1484 15.883 10.391 19.633 7.4375 45.578 0.70703 66.449-18.715 39.203-36.547 78.883-73.387 118.34-109.88l0.03125-0.03125c28.988-26.832 57.859-53.461 86.379-79.676 19.75-18.156 32.355-46.699 32.355-72.562 0-26.746-13.195-47.23-30.672-54.848-13.758-5.9922-27.629-12.074-41.594-18.184l-0.20703-0.089844c-54.051-23.703-109.41-48.234-162.95-72.234-19.305-8.6484-45.285-3.8359-66.301 14.289-21.105 18.215-34.715 47.969-34.715 75.305v280.23c0 17.652 5.5508 33.062 14.906 43.75l1.8906 2.0078c0.089843 0.089844 0.14844 0.17578 0.20703 0.23438zm263.62-59.602c4.7227 5.1367 11.363 7.3203 18.656 5.3125l67.926-18.773c16.176-4.4883 29.047-25.832 29.047-47.203v-315.04c0-12.754-4.6641-23.113-12.164-28.191l-3.1016-1.7109c-3.3047-1.4453-7.0273-1.832-10.922-1.0352l-67.926 13.902c-6.2578 1.3008-12.043 5.2852-16.797 10.805-7.6758 8.9141-12.664 21.816-12.664 35.098v53.254c12.754 5.5781 25.445 11.129 37.992 16.621 21.227 9.2383 38.051 33.652 38.051 66.094 0 29.078-14.141 61.164-36.34 81.594-13.168 12.105-26.422 24.324-39.703 36.574v68.547c0 10.184 2.8945 18.656 7.9102 24.117zm-50.066-53.785 29.902 32.117c-0.03125-0.82812-0.058594-1.6523-0.058594-2.4805v-57.211c-9.918 9.1523-19.867 18.363-29.844 27.57zm57.504-403.07c-3.1289-1.625-6.7617-2.1562-10.539-1.3594l-61.668 12.637c-5.5781 1.1211-10.715 4.6953-14.938 9.625-6.8789 8-11.363 19.543-11.363 31.5v56.68l70.848 46.789v-45.844c0-27.75 18.156-53.609 39.293-57.918l60.398-12.398z" fill="#5170ff" fill-rule="evenodd"/>
</svg>
