<?xml version="1.0" encoding="UTF-8"?>
<svg width="1200pt" height="1200pt" version="1.1" viewBox="0 0 1200 1200" xmlns="http://www.w3.org/2000/svg">
 <path d="m95.906 365.81c-32.719-21.609-54.844-62.109-54.844-110.91 0-76.875 55.312-143.86 121.22-149.58 15.75-1.3594 30.891 0.84375 44.859 6 7.7344 2.8594 15.094 6.6094 21.984 11.203l94.594 55.922 0.9375 0.46875c15.234-54.562 59.25-96.188 109.08-100.5l475.13-40.969c13.734-1.1719 27 0.70312 39.281 5.1562 0.14062 0.046875 0.28125 0.14062 0.42187 0.1875l140.72 58.969 0.23438 0.09375c40.125 16.359 69.422 59.625 69.422 114.61 0 72.516-51.75 134.95-111.89 141.56l-81.703 9 130.31 63.938c36.938 17.016 63.281 57.797 63.281 110.02 0 72.281-51.516 136.31-111.56 144.84l-54 7.6875 102.84 64.031c36.656 16.078 62.719 55.922 62.719 107.95 0 72.094-51.328 137.68-111.28 148.13l-497.34 86.906c-34.781 6.0938-67.031-5.7188-89.672-29.812l-70.359-68.25c-2.2031 76.875-58.031 147.14-124.13 158.72-40.875 7.1719-78-8.7656-101.86-39.609l-87.422-92.062c-1.6875-1.6875-3.375-3.4219-4.9688-5.25-19.031-21.469-30.844-51.984-30.844-87.609 0-76.5 54.984-146.81 120.61-156.74 4.8281-0.70312 9.5625-1.125 14.25-1.1719l-84.562-76.734c-7.125-5.0156-13.688-11.016-19.547-17.812-18.984-22.031-30.75-52.828-30.75-88.406 0-76.688 55.125-145.36 120.89-153.19 23.859-2.8125 46.266 2.5312 65.297 14.109 5.3906 3.2812 10.547 7.0781 15.328 11.344l78.609 58.406c10.547-62.156 57.844-113.06 112.22-119.48l55.359-6.5625c-6.8906-3.8438-13.359-8.5312-19.312-13.922l-82.641-53.391c-13.406 64.172-63.516 115.69-121.26 122.11-29.062 3.2344-56.25-5.2031-78.047-22.031zm218.29-170.29c-14.672-7.7344-31.312-11.391-48.891-9.8438-59.766 5.1562-108.66 66.938-108.66 136.64 0 68.719 48 120 106.73 113.48 54-6.0469 99.328-58.078 106.45-119.77 0-0.23438 0.046875-0.42188 0.046875-0.65625 0.60938-5.3438 0.89062-10.734 0.89062-16.172 0-41.625-18-76.922-45.375-96.703l-0.09375-0.09375c-1.125-0.79688-2.25-1.5938-3.4219-2.3438zm5.4844 354.28c-15.844-9.2812-34.359-13.453-54.094-11.109-59.906 7.125-108.94 70.594-108.94 140.48 0 68.484 47.859 118.08 106.41 109.69 59.016-8.4375 107.72-71.391 107.72-140.34 0-36.281-13.688-67.219-35.297-87.047l-7.125-5.2969c-4.0312-0.1875-7.3594-2.8125-8.6719-6.375zm609.42-178.78-377.63 41.625-115.73 13.734c-49.406 5.8594-90.938 55.172-96.609 112.73 30.281 22.172 50.484 60.516 51.141 106.92l45.516 35.625c-5.0156-14.484-7.7344-30.562-7.7344-47.859 0-76.594 54.938-144.19 119.39-151.82l489.56-58.031zm-842.86 300 56.859 51.562c-3.8906-13.406-6-27.984-6-43.406 0-80.062 57.562-151.74 126.19-159.89 4.875-0.5625 9.7031-0.84375 14.438-0.75l-43.453-32.344c-1.0312-0.42188-1.9688-1.0312-2.7656-1.8281-0.42188-0.375-0.89062-0.79688-1.3125-1.1719l-13.5-10.031c-15.281-9.2344-33.328-13.406-52.406-11.156-57.047 6.7969-103.73 67.266-103.73 133.78 0 30.188 9.6562 56.438 25.688 75.234zm462.94-277.78 495.74-54.609c51.469-5.6719 94.5-60.094 94.5-122.16 0-45.938-23.859-82.828-57.094-96.469-0.23438-0.046875-0.42188-0.14062-0.60938-0.23438l-0.60937-0.23438c-10.641-4.1719-22.219-5.9531-34.312-4.9219l-497.34 42.891c-55.641 4.8281-101.86 62.625-101.86 128.86 0 65.25 45.422 113.06 99.938 107.06zm-330.74-254.29c-5.6719-3.8438-11.719-6.9375-18.094-9.2812-11.297-4.2188-23.578-6-36.375-4.875-56.859 4.9219-103.41 63.75-103.41 130.13 0 41.578 18.375 76.359 46.266 94.688 0.14062 0.14062 0.28125 0.23438 0.42187 0.32812l40.641 29.859c-6.9375-17.156-10.781-36.562-10.781-57.469 0-80.25 57.75-150.14 126.52-156.1l0.84375-0.09375-45.516-26.906c-0.1875-0.09375-0.32813-0.1875-0.46875-0.28125zm744.84 558.89-413.29 58.875c-21.562 3.0469-42.188-0.70312-60.094-9.9844l-53.859 8.1094c-53.297 8.0156-97.547 66.281-97.547 129.52 0 1.4062 0.046874 2.8125 0.09375 4.2188l6.7969 6.0469c22.125 18.047 37.922 45.562 43.125 78.938l43.453 42.141c-2.5312-10.781-3.8906-22.266-3.8906-34.406 0-76.406 54.75-145.69 119.11-155.39l497.34-74.953c1.125-0.1875 2.25-0.32812 3.375-0.46875zm-771.19 424.64c18.797 16.5 43.594 24.234 70.688 19.5 59.156-10.406 108-75.047 108-144.14 0-67.359-47.391-114.84-104.86-106.12-60.094 9.0469-109.27 74.297-109.27 144.32 0 29.672 9 55.547 24.047 74.391zm196.87-452.68c-9.0938 70.031-61.734 129.61-123.14 138.42-5.5312 0.79688-11.016 1.125-16.359 1.125l70.031 62.25c5.625-67.969 55.547-127.31 113.62-136.08l33.328-5.0156zm750.47-128.81c0-60.984-42.094-104.48-92.297-98.578l-497.39 58.969c-55.828 6.6094-102.14 66.094-102.14 132.42 0 65.109 45.281 111.28 99.656 103.55l497.34-70.828c51.656-7.3594 94.828-63.328 94.828-125.53zm0 324.52c0-60.797-42-102.8-92.016-95.25l-497.34 74.953c-56.016 8.4375-102.47 69.609-102.47 136.08 0 64.922 45.188 109.45 99.328 100.03l497.39-86.906c51.797-9.0469 95.109-66.562 95.109-128.9zm-999.14 202.4c-2.1094-10.078-3.1875-20.719-3.1875-31.875 0-79.875 57.375-153.32 125.9-163.64 9.2344-1.4062 18.328-1.6406 27.141-0.75l-63.984-56.859c-17.016-13.031-38.484-19.031-61.594-15.562-57.188 8.625-104.02 70.781-104.02 137.44 0 30.281 9.7031 56.25 25.828 74.531zm800.95-1007c-9.6094-3.4688-19.969-4.9219-30.703-3.9844l-475.13 40.969c-44.297 3.8438-82.266 43.125-93.516 92.625 29.25 23.672 48.422 62.625 48.422 108.7 0 4.2656-0.1875 8.4375-0.46875 12.609l49.547 32.016c-7.2656-17.016-11.344-36.422-11.344-57.469 0-76.828 55.125-142.74 119.72-148.31l478.97-41.297z" fill="#ffbc59" fill-rule="evenodd"/>
</svg>
