<?xml version="1.0" encoding="UTF-8"?>
<svg width="1200pt" height="1200pt" version="1.1" viewBox="0 0 1200 1200" xmlns="http://www.w3.org/2000/svg">
 <path d="m887.34 826.69c16.414-19.691 26.215-47.027 26.215-79.473v-279.38c0-79.199-59.188-156.55-131.57-170.98l-243.54-48.59c-15.379-3.0703-30.141-2.9219-43.75 0h-0.03125c-2.9219 0.64844-5.8164 1.3867-8.6484 2.2734l-109.78 28.988c-52.133 10.273-89.801 57.355-89.801 122.3v283.33c0 80.711 60.043 163.72 133.29 185l268.28 77.961c40.707 11.836 77.52 3.957 104.23-17.801 2.7461-2.2422 5.3711-4.6328 7.8828-7.1445l0.089844-0.11719c2.3906-2.3633 4.6641-4.8984 6.8203-7.5273l75.07-83.008c1.8008-1.8594 3.5703-3.8086 5.2539-5.8438zm-95.969 87.883c-2.2148 2.2148-4.5156 4.2812-6.9062 6.2578-23.824 19.395-56.738 26.066-93.043 15.5l-268.28-77.93c-68.516-19.926-124.46-97.742-124.46-173.23v-283.33c0-54.465 29.254-95.234 71.203-107.95l6.6719-1.7422c13.551-3.0703 28.309-3.2773 43.688-0.20703l268.25 53.52c74.273 14.82 134.59 94.465 134.59 175.7v307.75c0 32-9.3281 59.039-25.328 78.609zm-436.66-497.53v286.43c0 39.559 29.551 79.707 65.062 89.59l268.28 74.715c19.867 5.5195 37.961 1.418 51.129-9.3594 13.02-10.625 21.312-27.957 21.312-49.562v-304.35c0-41.801-31.527-82.66-69.52-90.688l-268.28-56.797c-36.93-7.8242-67.984 18.656-67.984 60.016zm12.281 0c0-32.648 24-54.199 53.164-48l268.28 56.766c32.855 6.9648 59.777 42.566 59.777 78.699v304.35c0 17.387-6.3164 31.5-16.797 40.059-10.301 8.4414-24.531 11.363-40.09 7.0273l-268.25-74.688c-30.762-8.5898-56.09-43.543-56.09-77.785zm259.12 207.11c13.402-11.426 49.031-41.859 90.48-77.695 19.07-16.441 21.43-53.078 0.88672-80.031-20.871-27.395-55.055-31.824-74.094-15.145-40.266 35.336-74.922 65.445-88.645 77.34l-88.004-116.98c-20.043-26.508-52.781-30.641-71.023-14.438-17.891 15.91-20.191 50.656-0.82812 76.547l87.375 117.37c-43.453 37.285-79.379 67.719-86.438 73.711-17.77 15.055-20.516 49.652-1.0039 76.578 20.016 27.629 52.812 33.062 70.938 17.977 7.1133-5.9336 43.188-36.016 86.969-72.973l89.77 122.27c20.871 28.574 55.086 34.363 73.977 18.832 18.922-15.527 21.758-52.043 1.0625-80.09h-0.03125zm-13.285 2.7148 94.82 127.88c10.066 13.609 13.637 29.637 11.543 43.039-1.3281 8.2969-4.8125 15.559-10.508 20.25-14.523 11.926-40.234 5.3711-56.293-16.59l-93.672-127.59c-1.0039-1.3594-2.5078-2.2734-4.2227-2.4492-1.6836-0.20703-3.3672 0.29688-4.6641 1.3867-45.992 38.848-84.57 70.996-91.926 77.137-13.727 11.426-37.992 5.1641-53.137-15.734-9.3867-12.961-12.754-28.133-10.773-40.824 1.2383-7.8242 4.4883-14.699 9.7695-19.188 7.293-6.168 45.402-38.496 90.836-77.492 2.4492-2.0977 2.8633-5.7266 0.94531-8.3242l-90.836-121.95v-0.03125c-15.172-20.309-14.879-47.527-0.82812-60.043 13.699-12.191 37.961-7.2617 53.047 12.664l91.957 122.25c1.0039 1.3594 2.5664 2.2422 4.25 2.4219 1.6836 0.17578 3.3672-0.35547 4.6641-1.4766 7.5273-6.5234 46.82-40.562 93.695-81.684 14.523-12.781 40.266-7.5859 56.207 13.344 16.266 21.312 15.941 50.301 0.88672 63.293-47.438 41.004-87.203 74.895-94.82 81.391-2.4492 2.0977-2.8633 5.7266-0.94531 8.3242zm-115.45-366.61c12.043-2.5664 25.094-2.6562 38.672 0.058594l243.52 48.59c67.188 13.402 121.74 85.465 121.74 158.93v279.38c0 29.168-8.5898 53.816-23.32 71.527l-48.621 53.785c3.8984-13.285 5.9922-27.895 5.9922-43.629v-307.75c0-26.805-6.168-53.402-17.062-77.875-1.9492-8.7969-5.8438-17.594-11.836-25.477-1.9492-2.5391-4.0156-4.8711-6.168-6.9961-26.539-39.203-65.801-68.691-109.41-77.398l-268.07-53.488z" fill="#0f0" fill-rule="evenodd"/>
</svg>
