<?xml version="1.0" encoding="UTF-8"?>
<svg width="1200pt" height="1200pt" version="1.1" viewBox="0 0 1200 1200" xmlns="http://www.w3.org/2000/svg">
 <path d="m1200 600c0 214.36-114.36 412.44-300 519.62-185.64 107.18-414.36 107.18-600 0-185.64-107.18-300-305.26-300-519.62s114.36-412.44 300-519.62c185.64-107.18 414.36-107.18 600 0 185.64 107.18 300 305.26 300 519.62z" fill="#5170ff"/>
 <path d="m282.54 452.52c-20.605-13.609-34.539-39.113-34.539-69.844 0-48.414 34.832-90.594 76.344-94.199 9.918-0.85547 19.453 0.53125 28.25 3.7773 4.8711 1.8008 9.5039 4.1641 13.844 7.0547l59.57 35.219 0.58984 0.29687c9.5938-34.363 37.312-60.574 68.691-63.293l299.22-25.801c8.6484-0.73828 17.004 0.44141 24.738 3.2461 0.089844 0.03125 0.17578 0.089844 0.26562 0.11719l88.621 37.137 0.14844 0.058594c25.27 10.301 43.719 37.551 43.719 72.176 0 45.668-32.59 84.988-70.465 89.152l-51.453 5.668 82.062 40.266c23.262 10.715 39.852 36.398 39.852 69.285 0 45.52-32.441 85.84-70.258 91.215l-34.008 4.8398 64.766 40.324c23.086 10.125 39.5 35.219 39.5 67.984 0 45.402-32.324 86.703-70.082 93.285l-313.21 54.73c-21.902 3.8359-42.215-3.6016-56.473-18.773l-44.309-42.98c-1.3867 48.414-36.547 92.664-78.172 99.957-25.742 4.5156-49.121-5.5195-64.148-24.945l-55.055-57.977c-1.0625-1.0625-2.125-2.1562-3.1289-3.3047-11.984-13.52-19.426-32.738-19.426-55.172 0-48.176 34.625-92.453 75.957-98.711 3.0391-0.44141 6.0234-0.70703 8.9727-0.73828l-53.254-48.324c-4.4883-3.1602-8.6211-6.9375-12.309-11.219-11.957-13.875-19.363-33.27-19.363-55.676 0-48.293 34.715-91.539 76.129-96.473 15.027-1.7695 29.137 1.5938 41.121 8.8867 3.3945 2.0664 6.6406 4.457 9.6523 7.1445l49.504 36.781c6.6406-39.145 36.426-71.203 70.672-75.246l34.863-4.1328c-4.3398-2.4219-8.4141-5.3711-12.164-8.7695l-52.043-33.625c-8.4414 40.414-40 72.855-76.363 76.902-18.301 2.0352-35.426-3.2773-49.152-13.875zm137.47-107.24c-9.2383-4.8711-19.719-7.1719-30.789-6.1992-37.637 3.2461-68.426 42.156-68.426 86.055 0 43.277 30.23 75.57 67.219 71.469 34.008-3.8086 62.555-36.574 67.039-75.426 0-0.14844 0.03125-0.26562 0.03125-0.41406 0.38281-3.3672 0.5625-6.7617 0.5625-10.184 0-26.215-11.336-48.441-28.574-60.898l-0.058594-0.058593c-0.70703-0.5-1.418-1.0039-2.1562-1.4766zm3.4531 223.11c-9.9766-5.8438-21.637-8.4727-34.066-6.9961-37.727 4.4883-68.605 44.457-68.605 88.473 0 43.129 30.141 74.359 67.012 69.078 37.168-5.3125 67.836-44.957 67.836-88.379 0-22.848-8.6211-42.332-22.23-54.82l-4.4883-3.3359c-2.5391-0.11719-4.6328-1.7695-5.4609-4.0156zm383.79-112.59-237.82 26.215-72.887 8.6484c-31.113 3.6914-57.27 34.746-60.84 70.996 19.07 13.965 31.793 38.109 32.207 67.336l28.664 22.438c-3.1602-9.1211-4.8711-19.246-4.8711-30.141 0-48.234 34.598-90.805 75.188-95.613l308.31-36.547zm-530.8 188.93 35.809 32.473c-2.4492-8.4414-3.7773-17.625-3.7773-27.336 0-50.422 36.25-95.559 79.473-100.69 3.0703-0.35547 6.1094-0.53125 9.0938-0.47266l-27.363-20.367c-0.64844-0.26562-1.2383-0.64844-1.7422-1.1523-0.26562-0.23438-0.5625-0.5-0.82812-0.73828l-8.5-6.3164c-9.625-5.8164-20.988-8.4414-33.004-7.0273-35.926 4.2812-65.328 42.363-65.328 84.246 0 19.012 6.082 35.543 16.176 47.379zm291.54-174.93 312.2-34.391c32.414-3.5703 59.512-37.844 59.512-76.934 0-28.93-15.027-52.16-35.957-60.754-0.14844-0.03125-0.26562-0.089844-0.38281-0.14844l-0.38281-0.14844c-6.6992-2.6289-13.992-3.75-21.609-3.1016l-313.21 27.012c-35.039 3.0391-64.148 39.438-64.148 81.148 0 41.094 28.605 71.203 62.938 67.426zm-208.29-160.14c-3.5703-2.4219-7.3789-4.3672-11.395-5.8438-7.1133-2.6562-14.848-3.7773-22.906-3.0703-35.809 3.1016-65.121 40.148-65.121 81.949 0 26.184 11.57 48.09 29.137 59.629 0.089844 0.089844 0.17578 0.14844 0.26562 0.20703l25.594 18.805c-4.3672-10.805-6.7891-23.027-6.7891-36.191 0-50.539 36.367-94.555 79.676-98.305l0.53125-0.058594-28.664-16.945c-0.11719-0.058594-0.20703-0.11719-0.29687-0.17578zm469.07 351.96-260.28 37.078c-13.578 1.918-26.566-0.44141-37.844-6.2891l-33.918 5.1055c-33.562 5.0469-61.43 41.742-61.43 81.562 0 0.88672 0.03125 1.7695 0.058594 2.6562l4.2812 3.8086c13.934 11.363 23.883 28.695 27.16 49.711l27.363 26.539c-1.5938-6.7891-2.4492-14.023-2.4492-21.668 0-48.117 34.48-91.75 75.012-97.859l313.21-47.203c0.70703-0.11719 1.418-0.20703 2.125-0.29688zm-485.67 267.43c11.836 10.391 27.453 15.262 44.516 12.281 37.254-6.5547 68.016-47.262 68.016-90.777 0-42.422-29.844-72.324-66.035-66.832-37.844 5.6992-68.812 46.789-68.812 90.891 0 18.688 5.668 34.98 15.145 46.848zm123.98-285.08c-5.7266 44.102-38.879 81.625-77.551 87.172-3.4844 0.5-6.9375 0.70703-10.301 0.70703l44.102 39.203c3.543-42.805 34.98-80.172 71.559-85.699l20.988-3.1602zm472.62-81.117c0-38.406-26.508-65.801-58.125-62.082l-313.23 37.137c-35.156 4.1641-64.324 41.625-64.324 83.395 0 41.004 28.516 70.082 62.762 65.211l313.21-44.605c32.531-4.6328 59.719-39.883 59.719-79.055zm0 204.37c0-38.289-26.449-64.738-57.949-59.984l-313.21 47.203c-35.277 5.3125-64.531 43.836-64.531 85.699 0 40.887 28.457 68.93 62.555 62.996l313.23-54.73c32.621-5.6992 59.895-41.918 59.895-81.18zm-629.22 127.46c-1.3281-6.3477-2.0078-13.047-2.0078-20.074 0-50.301 36.133-96.559 79.289-103.06 5.8164-0.88672 11.543-1.0352 17.094-0.47266l-40.293-35.809c-10.715-8.207-24.234-11.984-38.789-9.8008-36.016 5.4336-65.504 44.574-65.504 86.551 0 19.07 6.1094 35.426 16.266 46.938zm504.41-634.18c-6.0508-2.1836-12.574-3.1016-19.336-2.5078l-299.22 25.801c-27.895 2.4219-51.809 27.16-58.895 58.332 18.422 14.906 30.496 39.438 30.496 68.457 0 2.6875-0.11719 5.3125-0.29688 7.9414l31.203 20.164c-4.5742-10.715-7.1445-22.938-7.1445-36.191 0-48.383 34.715-89.891 75.395-93.398l301.64-26.008z" fill="#ffbc59" fill-rule="evenodd"/>
</svg>
