<?xml version="1.0" encoding="UTF-8"?>
<svg width="1200pt" height="1200pt" version="1.1" viewBox="0 0 1200 1200" xmlns="http://www.w3.org/2000/svg">
 <path d="m72.844 772.03c-21.516-24.281-34.641-58.359-34.641-98.719v-321.66c0-92.766 69.984-181.78 154.5-197.29l467.81-85.875c17.156-3.1406 33.75-2.8594 49.172 0.375 7.4062 1.5469 14.531 3.75 21.328 6.6094l191.06 59.859c43.031 11.578 77.109 44.625 92.062 90.844 81.281-9.3281 147.66 52.734 147.66 145.55v325.78c0 91.875-66.562 183.19-147.94 207.79-0.51562 11.578 0.09375 30.656 5.7188 47.344 3.6562 10.734 9.3281 20.625 19.031 25.688 6.375 3.2812 14.344 4.3594 24.328 2.7188 2.3438-0.42187 20.766-3.2812 33.469 0.375 7.4531 2.1562 13.172 6.4688 15.844 12.703 1.7812 4.1719 2.3906 9.4219 0.5625 16.031-1.7344 6.1406-7.8281 15.797-20.25 26.25-16.078 13.5-43.5 29.438-85.266 41.531-44.578 12.891-85.219 13.828-123.71-3.9375-36.516-16.781-71.344-50.719-105.61-108.75l-278.02 70.453-0.1875 0.046876-2.6719 0.65625c-44.719 51.234-92.812 77.438-147.47 90.422-42.469 10.125-71.578 9.4219-89.719 4.9219-8.1562-2.0156-14.438-4.9219-18.984-8.1094-0.75-0.375-1.4062-0.89062-2.0625-1.5-2.625-2.1094-4.5469-4.2656-5.9062-6.3281l-137.95-148.31c-2.25-1.875-3.9844-3.8438-5.2031-5.7656-3.5625-5.5312-5.0625-13.547-0.70312-22.688 4.4531-9.3281 16.406-21.141 43.172-30.375 21.469-7.4062 34.266-22.922 41.859-39.797l-87.188-83.297c-5.0156-4.125-9.7031-8.625-14.062-13.547zm179.72 336.24c2.7656 1.7344 6.7969 3.2812 12.047 4.5938 16.266 3.9844 42.375 4.0781 80.531-4.9688 88.969-21.141 158.29-80.391 226.08-231.84 1.2188-2.7188 3.6562-4.7344 6.6094-5.4844l282.56-68.578c78-18.891 142.45-104.95 142.45-191.81v-329.9c0-84.703-62.625-141.74-138.37-127.82l-515.34 94.594c-84.234 15.469-153.37 104.72-153.37 197.21v354.32c0 40.828 13.594 75.188 36.281 98.672l6.5156 6.2344c0.46875 0.375 0.89062 0.75 1.3125 1.125 27.094 23.156 64.406 32.391 105.23 22.453 2.7188-0.65625 5.5781-0.09375 7.875 1.5 2.2969 1.6406 3.7969 4.125 4.125 6.9375 0.89062 8.625 2.1562 37.078-6.0469 66.516-8.5312 30.562-27.188 61.969-65.484 75.188-18.422 6.375-28.922 13.312-33.938 20.016-2.1562 2.8594-3.2344 5.2969-2.6719 7.1719zm628.03-475.78c0 32.625-25.172 65.109-54.281 71.859l-436.08 100.97c-16.828 3.8906-32.156-0.28125-43.312-9.8906-10.875-9.375-17.906-24.094-17.906-42.141 0-33.609 26.016-67.594 56.906-74.438l436.08-97.031c31.734-7.0781 58.594 15.234 58.594 50.672zm-19.5 0c0-21.516-15.562-35.953-34.875-31.641l-436.03 96.984c-22.875 5.1094-41.672 30.562-41.672 55.453 0 11.672 4.125 21.328 11.109 27.375 6.75 5.8125 16.078 8.0156 26.25 5.6719l436.03-100.97c21.281-4.9219 39.188-29.062 39.188-52.875zm19.5-167.76c0 32.719-25.266 64.922-54.422 71.203l-436.08 94.547c-33.188 7.1719-61.078-16.266-61.078-52.828 0-33.703 26.109-67.312 57.047-73.734l436.08-90.562c31.641-6.5625 58.453 16.078 58.453 51.375zm-19.5 0c0-21.609-15.609-36.328-35.016-32.297l-436.03 90.562c-22.828 4.7344-41.531 29.859-41.531 54.656 0 22.828 16.734 38.25 37.453 33.75l436.08-94.5c21.188-4.5938 39.047-28.406 39.047-52.172zm19.5-167.72c0 32.531-25.031 64.547-54.562 70.547l-436.03 88.031c-33.141 6.6562-60.984-17.062-60.984-53.578 0-33.797 26.203-67.078 57.188-73.031l436.08-84.094c31.547-6.0938 58.312 16.875 58.312 52.125zm-19.5 0c0-21.75-15.703-36.75-35.156-33l-436.03 84.094c-22.734 4.3594-41.391 29.156-41.391 53.906 0 22.922 16.781 38.672 37.594 34.453l436.08-88.031c21.328-4.3125 38.906-27.891 38.906-51.422zm-155.86-209.16c-12.938-2.6719-26.812-2.8125-41.203-0.1875l-467.81 85.875c-76.125 13.969-138.52 94.594-138.52 178.13v321.66c0 34.828 10.969 64.453 29.484 85.5l96.469 92.203c-4.7812-16.031-7.4062-33.656-7.4062-52.453v-354.32c0-101.72 76.688-199.36 169.36-216.37l508.64-93.375zm313.82 157.45c2.1562 11.062 3.2812 22.781 3.2812 34.969v329.9c0 95.625-71.484 189.94-157.36 210.79l-277.92 67.406c-22.781 50.25-45.844 90.516-69.75 122.81l263.02-66.656c4.2188-1.0781 8.6719 0.84375 10.828 4.6406 32.812 57.328 65.578 91.031 100.59 107.16 34.266 15.797 70.453 14.344 110.11 2.8594 38.25-11.062 63.422-25.312 78.141-37.734 8.1562-6.8438 12.891-12.562 14.016-16.594 0.375-1.2656 0.70312-2.25 0.32812-3.0469-0.65625-1.3125-2.4375-1.4531-4.125-1.875-2.7188-0.65625-5.7656-0.89063-8.6719-0.9375-7.3594-0.09375-14.156 1.0312-15.328 1.2656-15.047 2.5312-27 0.32813-36.562-4.6406-14.156-7.3594-23.25-21.094-28.547-36.75-7.9219-23.531-7.3125-51.234-6.2344-62.109 0.42188-4.0781 3.3281-7.4531 7.3125-8.4375 76.734-19.453 140.11-105.05 140.11-190.82v-325.78c0-78.75-54.703-132.71-123.24-126.42zm-910.26 708.42 125.26 134.63c5.9531-9.4688 19.172-20.578 45.141-29.578 31.359-10.828 46.078-36.984 53.062-62.016 5.2031-18.562 6.1875-36.703 6-48.422-43.031 7.3125-82.031-4.125-111.05-28.875-0.5625-0.46875-1.0781-0.98438-1.6406-1.4531l-0.09375-0.046874c-2.4375-2.2031-4.875-4.5-7.1719-6.8906l-29.344-28.031c-9.9375 18.891-25.688 35.578-50.297 44.062-16.5 5.7188-25.922 11.859-30.422 17.859-1.9688 2.625-3 4.7344-2.0156 6.2344 0.32812 0.51563 0.84375 1.0312 1.5 1.5 0.375 0.32813 0.75 0.65625 1.0781 1.0312z" fill="#5170ff" fill-rule="evenodd"/>
</svg>
